<?xml version="1.0" encoding="utf-8"?>
<!-- Generator: Adobe Illustrator 26.1.0, SVG Export Plug-In . SVG Version: 6.00 Build 0)  -->
<svg version="1.1" id="Ebene_1" xmlns="http://www.w3.org/2000/svg" xmlns:xlink="http://www.w3.org/1999/xlink" x="0px" y="0px"
	 viewBox="0 0 246.7 94.1" style="enable-background:new 0 0 246.7 94.1;" xml:space="preserve">
<style type="text/css">
	.st0{fill:#1EC864;}
</style>
<g>
	<path class="st0" d="M35,12.6v68.7H13.5V12.6H35z"/>
	<path class="st0" d="M105.4,64.3c-2.9,5.2-7.1,9.4-12.5,12.4c-5.4,3-11.7,4.5-18.9,4.5H45.5V12.6h28.6c7.2,0,13.5,1.5,18.9,4.4
		c5.4,2.9,9.6,7,12.5,12.1c2.9,5.2,4.4,11.1,4.4,17.6C109.8,53.2,108.3,59.1,105.4,64.3z M83.7,58c2.8-2.7,4.3-6.4,4.3-11.3
		c0-4.9-1.4-8.7-4.3-11.3c-2.8-2.6-6.7-4-11.5-4H67V62h5.1C77,62,80.9,60.7,83.7,58z"/>
	<path class="st0" d="M119.6,19.5c1.9-3,4.8-5.5,8.6-7.4c3.8-1.9,8.5-2.9,14.1-2.9c5.6,0,10.3,1,14.1,2.9c3.8,1.9,6.7,4.4,8.6,7.4
		c1.9,3,2.9,6.1,2.9,9.4c0,3.4-0.7,6.4-2.2,8.8s-3.5,4.4-6.1,5.9c6.5,3.8,9.8,9.5,9.8,17.2c0,4.9-1.2,9.1-3.7,12.5
		c-2.5,3.4-5.8,6-9.9,7.8c-4.1,1.7-8.7,2.6-13.6,2.6c-4.9,0-9.4-0.9-13.6-2.6c-4.1-1.7-7.4-4.3-9.9-7.8c-2.5-3.4-3.7-7.6-3.7-12.5
		c0-7.6,3.3-13.3,9.8-17.2c-2.6-1.5-4.6-3.4-6.1-5.9c-1.5-2.4-2.2-5.3-2.2-8.8C116.8,25.7,117.7,22.5,119.6,19.5z M137.7,64.2
		c1.1,1.2,2.6,1.8,4.7,1.8c2,0,3.6-0.6,4.7-1.8c1.1-1.2,1.6-2.8,1.6-4.8s-0.6-3.5-1.7-4.8c-1.1-1.3-2.7-1.9-4.6-1.9
		s-3.5,0.6-4.6,1.9c-1.1,1.3-1.7,2.9-1.7,4.8S136.6,63,137.7,64.2z M139.2,36.8c0.8,1,1.9,1.5,3.2,1.5c1.3,0,2.4-0.5,3.2-1.5
		c0.8-1,1.3-2.4,1.3-4.3c0-1.8-0.4-3.2-1.3-4.3c-0.8-1.1-1.9-1.6-3.2-1.6c-1.3,0-2.4,0.5-3.2,1.6c-0.8,1.1-1.3,2.5-1.3,4.3
		C137.9,34.5,138.3,35.9,139.2,36.8z"/>
	<path class="st0" d="M213.2,81.2l-13-24.6v24.6h-21.5V12.6h32c5.6,0,10.3,1,14.3,3c3.9,2,6.9,4.7,8.9,8c2,3.4,3,7.2,3,11.5
		c0,4.6-1.3,8.7-3.8,12.2c-2.6,3.6-6.2,6.1-11,7.7l14.9,26.3H213.2z M200.2,42.2h8.5c2.1,0,3.6-0.5,4.7-1.4c1-0.9,1.6-2.4,1.6-4.4
		c0-1.8-0.5-3.2-1.6-4.3c-1.1-1-2.6-1.6-4.6-1.6h-8.5V42.2z"/>
</g>
</svg>
